<svg width="23" height="18" viewBox="0 0 23 18" fill="none" xmlns="http://www.w3.org/2000/svg">
<path d="M9.09131 0.869141C9.07631 0.869141 9.06139 0.870094 9.04639 0.871094C8.91939 0.881094 5.90803 1.14036 3.97803 2.69336C2.97003 3.62536 0.95459 9.0732 0.95459 13.7832C0.95459 13.8662 0.97609 13.9465 1.01709 14.0195C2.40809 16.4625 6.20192 17.1029 7.06592 17.1309H7.08154C7.23454 17.1309 7.37826 17.0576 7.46826 16.9336L8.34326 15.7324C5.98426 15.1224 4.77945 14.0864 4.71045 14.0254C4.51245 13.8504 4.49248 13.5496 4.66748 13.3516C4.76148 13.2446 4.8929 13.1895 5.0249 13.1895C5.1369 13.1895 5.25031 13.2286 5.34131 13.3086C5.37031 13.3346 7.58864 15.2168 11.9526 15.2168C16.3246 15.2168 18.5439 13.3256 18.5659 13.3066C18.6569 13.2276 18.7703 13.1895 18.8823 13.1895C19.0143 13.1895 19.1447 13.2436 19.2397 13.3516C19.4137 13.5496 19.3957 13.8514 19.1987 14.0254C19.1287 14.0874 17.923 15.1205 15.564 15.7305L16.439 16.9336C16.529 17.0576 16.6727 17.1309 16.8257 17.1309H16.8413C17.7063 17.1039 21.5011 16.4635 22.8921 14.0195C22.9331 13.9475 22.9546 13.8662 22.9546 13.7832C22.9546 9.0732 20.9388 3.62488 19.9058 2.67188C18.0018 1.14087 14.9908 0.882094 14.8628 0.871094C14.8498 0.870094 14.8348 0.869141 14.8218 0.869141C14.6358 0.869141 14.4652 0.979391 14.3882 1.15039C14.3822 1.16239 14.3167 1.31383 14.2437 1.54883C15.5027 1.76083 17.0487 2.18959 18.4487 3.05859C18.6727 3.19759 18.742 3.4918 18.603 3.7168C18.513 3.8628 18.3568 3.94336 18.1968 3.94336C18.1108 3.94336 18.0238 3.92009 17.9448 3.87109C15.5388 2.38009 12.5326 2.30469 11.9546 2.30469C11.3766 2.30469 8.37031 2.38105 5.96631 3.87305C5.88731 3.92105 5.80036 3.94336 5.71436 3.94336C5.55436 3.94336 5.39715 3.86475 5.30615 3.71875C5.16615 3.49375 5.23645 3.19859 5.46045 3.05859C6.86045 2.19059 8.40748 1.76278 9.66748 1.55078C9.59348 1.31478 9.526 1.16434 9.521 1.15234C9.444 0.981344 9.27631 0.869141 9.09131 0.869141ZM11.9546 4.30469C12.2506 4.30469 14.9052 4.34031 16.8882 5.57031C17.2812 5.81431 17.7318 5.94531 18.1948 5.94531C18.5878 5.94531 18.9652 5.8555 19.3022 5.6875C19.9192 7.2405 20.6454 9.68622 20.8784 12.1992C20.8384 12.1432 20.7955 12.0891 20.7495 12.0371C20.2795 11.4981 19.5993 11.1914 18.8843 11.1914C18.2873 11.1914 17.7087 11.4054 17.2847 11.7734C17.2117 11.8324 15.4596 13.2188 11.9546 13.2188C8.45059 13.2188 6.69962 11.8347 6.66162 11.8047C6.20862 11.4077 5.62886 11.1895 5.02686 11.1895C4.31586 11.1895 3.63843 11.4944 3.16943 12.0254C3.12043 12.0804 3.07476 12.1383 3.03076 12.1973C3.26376 9.68627 3.98903 7.23559 4.60303 5.68359C4.94103 5.85259 5.32036 5.94336 5.71436 5.94336C6.17636 5.94336 6.62704 5.81431 7.01904 5.57031C9.00404 4.33931 11.6586 4.30469 11.9546 4.30469ZM8.84521 7.04492C7.92122 7.04492 7.17139 7.90103 7.17139 8.95703C7.17139 10.013 7.92021 10.8691 8.84521 10.8691C9.77022 10.8691 10.519 10.013 10.519 8.95703C10.519 7.90003 9.77022 7.04492 8.84521 7.04492ZM15.064 7.04492C14.14 7.04492 13.3901 7.90103 13.3901 8.95703C13.3901 10.013 14.139 10.8691 15.064 10.8691C15.989 10.8691 16.7378 10.013 16.7378 8.95703C16.7378 7.90003 15.988 7.04492 15.064 7.04492Z" fill="#E9E9E9"/>
</svg>
