<svg width="19" height="18" viewBox="0 0 19 18" fill="none" xmlns="http://www.w3.org/2000/svg">
<path d="M5.47998 0C2.72298 0 0.47998 2.243 0.47998 5V13C0.47998 15.757 2.72298 18 5.47998 18H13.48C16.237 18 18.48 15.757 18.48 13V5C18.48 2.243 16.237 0 13.48 0H5.47998ZM5.47998 2H13.48C15.134 2 16.48 3.346 16.48 5V13C16.48 14.654 15.134 16 13.48 16H5.47998C3.82598 16 2.47998 14.654 2.47998 13V5C2.47998 3.346 3.82598 2 5.47998 2ZM14.48 3C14.2148 3 13.9604 3.10536 13.7729 3.29289C13.5853 3.48043 13.48 3.73478 13.48 4C13.48 4.26522 13.5853 4.51957 13.7729 4.70711C13.9604 4.89464 14.2148 5 14.48 5C14.7452 5 14.9996 4.89464 15.1871 4.70711C15.3746 4.51957 15.48 4.26522 15.48 4C15.48 3.73478 15.3746 3.48043 15.1871 3.29289C14.9996 3.10536 14.7452 3 14.48 3ZM9.47998 4C6.72298 4 4.47998 6.243 4.47998 9C4.47998 11.757 6.72298 14 9.47998 14C12.237 14 14.48 11.757 14.48 9C14.48 6.243 12.237 4 9.47998 4ZM9.47998 6C11.134 6 12.48 7.346 12.48 9C12.48 10.654 11.134 12 9.47998 12C7.82598 12 6.47998 10.654 6.47998 9C6.47998 7.346 7.82598 6 9.47998 6Z" fill="#E9E9E9"/>
</svg>
