<svg width="19" height="18" viewBox="0 0 19 18" fill="none" xmlns="http://www.w3.org/2000/svg">
<path d="M3.95459 0C2.30962 0 0.95459 1.35503 0.95459 3V15C0.95459 16.645 2.30962 18 3.95459 18H15.9546C17.5996 18 18.9546 16.645 18.9546 15V3C18.9546 1.35503 17.5996 0 15.9546 0H3.95459ZM3.95459 2H15.9546C16.5196 2 16.9546 2.43497 16.9546 3V15C16.9546 15.565 16.5196 16 15.9546 16H3.95459C3.38956 16 2.95459 15.565 2.95459 15V3C2.95459 2.43497 3.38956 2 3.95459 2ZM4.65576 4L8.59717 9.63281L4.86084 14H6.19287L9.19482 10.4844L11.6519 14H15.4917L11.3062 8.00977L14.728 4H13.4175L10.7144 7.16016L8.50732 4H4.65576ZM6.521 4.98828H8.00732L13.6382 13.0117H12.1421L6.521 4.98828Z" fill="#E9E9E9"/>
</svg>
