<svg width="20" height="20" viewBox="0 0 20 20" fill="none" xmlns="http://www.w3.org/2000/svg">
<path d="M8.85948 0.374879C4.25948 0.874879 0.559482 4.57488 0.0594817 9.07488C-0.440518 13.7749 2.25948 17.9749 6.35948 19.5749C6.65948 19.6749 6.95948 19.4749 6.95948 19.0749V17.4749C6.95948 17.4749 6.55948 17.5749 6.05948 17.5749C4.65948 17.5749 4.05948 16.3749 3.95948 15.6749C3.85948 15.2749 3.65948 14.9749 3.35948 14.6749C3.05948 14.5749 2.95948 14.5749 2.95948 14.4749C2.95948 14.2749 3.25948 14.2749 3.35948 14.2749C3.95948 14.2749 4.45948 14.9749 4.65948 15.2749C5.15948 16.0749 5.75948 16.2749 6.05948 16.2749C6.45948 16.2749 6.75948 16.1749 6.95948 16.0749C7.05948 15.3749 7.35948 14.6749 7.95948 14.2749C5.65948 13.7749 3.95948 12.4749 3.95948 10.2749C3.95948 9.17488 4.45948 8.07488 5.15948 7.27488C5.05948 7.07488 4.95948 6.57488 4.95948 5.87488C4.95948 5.47488 4.95948 4.87488 5.25948 4.27488C5.25948 4.27488 6.65948 4.27488 8.05948 5.57488C8.55948 5.37488 9.25948 5.27488 9.95948 5.27488C10.6595 5.27488 11.3595 5.37488 11.9595 5.57488C13.2595 4.27488 14.7595 4.27488 14.7595 4.27488C14.9595 4.87488 14.9595 5.47488 14.9595 5.87488C14.9595 6.67488 14.8595 7.07488 14.7595 7.27488C15.4595 8.07488 15.9595 9.07488 15.9595 10.2749C15.9595 12.4749 14.2595 13.7749 11.9595 14.2749C12.5595 14.7749 12.9595 15.6749 12.9595 16.5749V19.1749C12.9595 19.4749 13.2595 19.7749 13.6595 19.6749C17.3595 18.1749 19.9595 14.5749 19.9595 10.3749C19.9595 4.37488 14.8595 -0.325121 8.85948 0.374879Z" fill="#E9E9E9"/>
</svg>
