<svg width="21" height="18" viewBox="0 0 21 18" fill="none" xmlns="http://www.w3.org/2000/svg">
<path d="M19.5278 0.0116327C19.1955 -0.0236174 18.8342 0.028289 18.4712 0.171789C18.0212 0.348789 10.97 3.31495 4.39697 6.08195L2.2251 6.99601C1.3841 7.33701 0.959473 7.89159 0.959473 8.63859C0.959473 9.16159 1.18082 9.87098 2.23682 10.289L5.90283 11.7577C6.21983 12.7087 6.95611 14.9168 7.14111 15.5038C7.25111 15.8518 7.52896 16.7285 8.23096 16.9335C8.37496 16.9825 8.52522 17.0077 8.67822 17.0077C9.12122 17.0077 9.44019 16.8016 9.59619 16.6816L11.9263 14.7109L14.7563 17.328C14.8653 17.439 15.4423 17.9999 16.2173 17.9999C17.1843 17.9999 17.9178 17.1949 18.0708 16.4159C18.1538 15.9889 20.8833 2.28698 20.8833 2.28898C21.1283 1.18998 20.6878 0.619867 20.4048 0.376867C20.1623 0.169367 19.8602 0.0468827 19.5278 0.0116327ZM18.8657 2.17179C18.4887 4.06179 16.4336 14.3781 16.1216 15.8651L11.9849 12.039L9.17822 14.4159L9.95557 11.3749C9.95557 11.3749 15.3181 5.94677 15.6411 5.63077C15.9011 5.37777 15.9556 5.28909 15.9556 5.20109C15.9556 5.08409 15.8953 4.99991 15.7563 4.99991C15.6313 4.99991 15.4616 5.1197 15.3716 5.1757C14.2282 5.88851 9.35966 8.66215 6.96338 10.0253L3.48682 8.63663L5.17432 7.92765C9.47332 6.11765 17.1297 2.89379 18.8657 2.17179Z" fill="#E9E9E9"/>
</svg>
