<svg width="36" height="36" viewBox="0 0 36 36" fill="none" xmlns="http://www.w3.org/2000/svg">
  <path d="M32.9603 2L19.8203 11.72L22.2703 5.99L32.9603 2Z" fill="#E17726" stroke="#E17726" stroke-width="0.25" stroke-linecap="round" stroke-linejoin="round"/>
  <path d="M2.65953 2L15.6795 11.8L13.3495 6L2.65953 2ZM28.2295 24.53L24.7295 29.87L32.2195 31.93L34.3595 24.65L28.2295 24.53ZM1.26953 24.65L3.39953 31.93L10.8695 29.87L7.38953 24.53L1.26953 24.65Z" fill="#E27625" stroke="#E27625" stroke-width="0.25" stroke-linecap="round" stroke-linejoin="round"/>
  <path d="M10.4706 15.5099L8.39062 18.6499L15.7906 18.9899L15.5506 11.0199L10.4706 15.5199V15.5099ZM25.1506 15.5199L19.9906 10.9199L19.8206 18.9899L27.2206 18.6499L25.1506 15.5199ZM10.8706 29.8699L15.3606 27.7099L11.5006 24.7099L10.8706 29.8699ZM20.2706 27.6999L24.7306 29.8699L24.1306 24.6999L20.2706 27.6999Z" fill="#E27625" stroke="#E27625" stroke-width="0.25" stroke-linecap="round" stroke-linejoin="round"/>
  <path d="M24.7311 29.87L20.2711 27.71L20.6311 30.61L20.5911 31.84L24.7311 29.87ZM10.8711 29.87L15.0311 31.84L15.0011 30.61L15.3611 27.71L10.8711 29.87Z" fill="#D5BFB2" stroke="#D5BFB2" stroke-width="0.25" stroke-linecap="round" stroke-linejoin="round"/>
  <path d="M15.0984 22.7802L11.3984 21.7002L14.0184 20.5002L15.1084 22.7802H15.0984ZM20.5084 22.7802L21.6084 20.4902L24.2384 21.6902L20.5084 22.7902V22.7802Z" fill="#233447" stroke="#233447" stroke-width="0.25" stroke-linecap="round" stroke-linejoin="round"/>
  <path d="M10.8706 29.8699L11.5206 24.5299L7.39062 24.6499L10.8706 29.8699ZM24.1006 24.5299L24.7306 29.8699L28.2306 24.6499L24.1006 24.5299ZM27.2306 18.6499L19.8306 18.9899L20.5106 22.7899L21.6106 20.4899L24.2406 21.6899L27.2306 18.6499ZM11.4006 21.6999L14.0206 20.4999L15.1106 22.7799L15.8006 18.9799L8.40062 18.6499L11.4006 21.6999Z" fill="#CC6228" stroke="#CC6228" stroke-width="0.25" stroke-linecap="round" stroke-linejoin="round"/>
  <path d="M8.39844 18.6499L11.4984 24.6999L11.3984 21.6999L8.39844 18.6499ZM24.2384 21.6999L24.1184 24.6999L27.2184 18.6499L24.2384 21.6999ZM15.7984 18.9899L15.0984 22.7899L15.9784 27.2699L16.1784 21.3599L15.7984 18.9899ZM19.8184 18.9899L19.4584 21.3499L19.6384 27.2699L20.5084 22.7799L19.8184 18.9799V18.9899Z" fill="#E27525" stroke="#E27525" stroke-width="0.25" stroke-linecap="round" stroke-linejoin="round"/>
  <path d="M20.5106 22.7802L19.6406 27.2702L20.2706 27.7102L24.1206 24.7102L24.2406 21.7002L20.5106 22.7802ZM11.4006 21.7002L11.5006 24.7002L15.3606 27.7002L15.9806 27.2702L15.1106 22.7802L11.3906 21.7002H11.4006Z" fill="#F5841F" stroke="#F5841F" stroke-width="0.25" stroke-linecap="round" stroke-linejoin="round"/>
  <path d="M20.6011 31.8401L20.6311 30.6101L20.2911 30.3301H15.3311L15.0011 30.6101L15.0311 31.8401L10.8711 29.8701L12.3311 31.0701L15.2811 33.1001H20.3311L23.2911 31.0601L24.7311 29.8701L20.5911 31.8401H20.6011Z" fill="#C0AC9D" stroke="#C0AC9D" stroke-width="0.25" stroke-linecap="round" stroke-linejoin="round"/>
  <path d="M20.27 27.7L19.64 27.27H15.98L15.36 27.71L15 30.61L15.33 30.33H20.29L20.63 30.61L20.27 27.71V27.7Z" fill="#161616" stroke="#161616" stroke-width="0.25" stroke-linecap="round" stroke-linejoin="round"/>
  <path d="M33.52 12.35L34.62 7L32.96 2L20.26 11.4L25.15 15.51L32.05 17.52L33.57 15.75L32.91 15.27L33.96 14.31L33.16 13.69L34.21 12.89L33.51 12.35H33.52ZM1 6.99L2.12 12.35L1.4 12.88L2.47 13.68L1.67 14.31L2.71 15.27L2.05 15.75L3.57 17.52L10.47 15.52L15.36 11.39L2.66 2L1 6.99Z" fill="#763E1A" stroke="#763E1A" stroke-width="0.25" stroke-linecap="round" stroke-linejoin="round"/>
  <path d="M32.0495 17.5202L25.1495 15.5202L27.2295 18.6502L24.1295 24.7002L28.2295 24.6502H34.3595L32.0495 17.5202ZM10.4695 15.5102L3.56953 17.5202L1.26953 24.6502H7.39953L11.4995 24.7002L8.39953 18.6502L10.4795 15.5102H10.4695ZM19.8195 18.9902L20.2695 11.3902L22.2695 5.99023H13.3495L15.3495 11.3902L15.7995 18.9902L15.9695 21.3702V27.2702H19.6395L19.6595 21.3702L19.8195 18.9902Z" fill="#F5841F" stroke="#F5841F" stroke-width="0.25" stroke-linecap="round" stroke-linejoin="round"/>
</svg>
